# xmcd
#
# Track frame offsets:
# 150
# 21422
# 53709
# 76849
# 94152
# 119725
# 135059
# 162293
# 181645
# 204428
# 222050
# 240047
# 258481
# 312258
# 319158
# 339423
#
# Disc length: 4766 seconds
#
# Revision: 0
# Processed by: cddbd v1.4PL0 Copyright (c) Steve Scherf et al.
# Submitted via: Audion 2.6.0 (http://www.panic.com/audion/)
#
DISCID=cb129c10
DTITLE=Various Artist - MICHELLE'S PRIMAVERA 2002  - B -
DYEAR=1900
DGENRE=
TTITLE0=Y Tu Te Vas - CHAYANNE
TTITLE1=Amor Eterno - JUAN GABRIEL
TTITLE2=Y Nos Dieron Las Diez - JOAQUIN SABINA y ROCIO DURCAL
TTITLE3=Quítame  ese Hombre - PILAR MONTENEGRO -
TTITLE4=Triste Canción - EL TRI -
TTITLE5=Bailando Salsa - MECANO -
TTITLE6=Dime Si Son Latinos - PROYECTO UNO -
TTITLE7=Te Necesito -KABAH -
TTITLE8=El Tiburón - PROYECTO UNO -
TTITLE9=Te Necesito - KABAH-
TTITLE10=Como Ves - OZOMATLI -
TTITLE11=Papi Chulo - PROYECTO UNO -
TTITLE12=Mucho Chingón (Tejano Cumbia) - KUMBIA KINGS
TTITLE13=Amigas y Rivales - KABAH -
TTITLE14=Chango - OZOMATLI-
TTITLE15=Cucurrucucú- LOLA BELTRAN -
EXTD=
EXTT0=
EXTT1=
EXTT2=
EXTT3=
EXTT4=
EXTT5=
EXTT6=
EXTT7=
EXTT8=
EXTT9=
EXTT10=
EXTT11=
EXTT12=
EXTT13=
EXTT14=
EXTT15=
PLAYORDER=
